<?xml version="1.0" encoding="UTF-8"?> <svg xmlns="http://www.w3.org/2000/svg" width="536" height="124" viewBox="0 0 536 124" fill="none"> <path d="M55.0083 27.3352L63.0572 49.5658H46.9593L55.0083 27.3352Z" fill="#602B7A"></path> <path d="M179.344 62.0625C175.855 62.0625 172.922 60.8685 170.543 58.4806C168.165 56.0927 166.975 53.0946 166.975 49.4862C166.975 45.8778 168.165 42.8796 170.543 40.4917C172.922 38.1038 175.855 36.9099 179.344 36.9099C182.832 36.9099 185.766 38.1038 188.144 40.4917C190.523 42.8796 191.712 45.8778 191.712 49.4862C191.712 53.0946 190.523 56.0927 188.144 58.4806C185.766 60.8685 182.832 62.0625 179.344 62.0625Z" fill="#602B7A"></path> <path d="M218.254 58.6398C220.632 61.0277 223.619 62.2216 227.213 62.2216C230.807 62.2216 233.794 61.0277 236.172 58.6398C238.551 56.1988 239.74 53.1476 239.74 49.4862C239.74 45.8247 238.551 42.8 236.172 40.4121C233.794 37.9712 230.807 36.7507 227.213 36.7507C223.619 36.7507 220.632 37.9712 218.254 40.4121C215.875 42.8 214.686 45.8247 214.686 49.4862C214.686 53.1476 215.875 56.1988 218.254 58.6398Z" fill="#602B7A"></path> <path d="M475.708 58.6398C478.086 61.0277 481.073 62.2216 484.667 62.2216C488.261 62.2216 491.247 61.0277 493.626 58.6398C496.004 56.1988 497.194 53.1476 497.194 49.4862C497.194 45.8247 496.004 42.8 493.626 40.4121C491.247 37.9712 488.261 36.7507 484.667 36.7507C481.073 36.7507 478.086 37.9712 475.708 40.4121C473.329 42.8 472.14 45.8247 472.14 49.4862C472.14 53.1476 473.329 56.1988 475.708 58.6398Z" fill="#602B7A"></path> <path fill-rule="evenodd" clip-rule="evenodd" d="M0.953125 0H535.953V98.4035H80.3971L80.5999 98.6064L55.2043 124L29.7004 98.498L29.7949 98.4035H0.953125V0ZM65.8981 58.1622L70.7476 69.3854H80.5787L59.743 16.4954H50.2736L29.4409 69.3854H39.3513L44.1184 58.1622H65.8981ZM164.518 64.3708C168.587 68.4037 173.529 70.4201 179.344 70.4201C185.211 70.4201 190.153 68.4037 194.17 64.3708C198.24 60.3379 200.275 55.3763 200.275 49.4862C200.275 43.596 198.24 38.6345 194.17 34.6016C190.153 30.5687 185.211 28.5522 179.344 28.5522C173.529 28.5522 168.587 30.5687 164.518 34.6016C160.448 38.6345 158.413 43.596 158.413 49.4862C158.413 55.3763 160.448 60.3379 164.518 64.3708ZM119.839 29.587V69.3854H111.277V37.865H98.0365V52.67C98.0365 58.9847 96.6623 63.4687 93.9138 66.1219C91.1653 68.7751 87.254 69.863 82.1798 69.3854V61.3461C84.6112 61.7706 86.4347 61.2665 87.6504 59.8337C88.8661 58.401 89.4739 55.8805 89.4739 52.272V29.587H119.839ZM156.377 29.587V37.865H138.38V69.3854H129.817V29.587H156.377ZM228.561 28.5522C234.005 28.5522 238.656 30.5952 242.515 34.6812C246.373 38.7141 248.303 43.6491 248.303 49.4862C248.303 55.3763 246.373 60.3379 242.515 64.3708C238.656 68.4037 234.005 70.4201 228.561 70.4201C222.535 70.4201 217.91 68.1914 214.686 63.734V82.4769H206.123V29.587H214.686V35.3179C217.91 30.8074 222.535 28.5522 228.561 28.5522ZM289.451 29.587H282.871L262.573 54.8191V29.587H254.169V69.3854H260.75L281.047 44.0736V69.3854H289.451V29.587ZM329.673 29.587V37.865H316.75V69.3854H308.187V37.865H295.184V29.587H329.673ZM367.576 69.3854H375.901V29.587H367.18L355.684 47.9738L344.188 29.587H335.467V69.3854H343.791V43.2776L355.129 61.4257H356.16L367.576 43.198V69.3854ZM414.494 29.587H421.074V69.3854H412.67V44.0736L392.374 69.3854H385.793V29.587H394.197V54.8191L414.494 29.587ZM454.878 69.3854H465.106L447.029 49.0882L464.471 29.587H454.006L438.625 47.1779V29.587H430.062V69.3854H438.625V50.9985L454.878 69.3854ZM497.194 29.587H505.756V69.3854H497.194V63.6544C493.969 68.1649 489.344 70.4201 483.319 70.4201C477.875 70.4201 473.223 68.4037 469.365 64.3708C465.507 60.2848 463.577 55.3233 463.577 49.4862C463.577 43.596 465.507 38.6345 469.365 34.6016C473.223 30.5687 477.875 28.5522 483.319 28.5522C489.344 28.5522 493.969 30.7809 497.194 35.2383V29.587Z" fill="#602B7A"></path> </svg> 